<?xml version="1.0" encoding="utf-8"?>
<!-- Generator: Adobe Illustrator 25.1.0, SVG Export Plug-In . SVG Version: 6.00 Build 0)  -->
<svg version="1.1" id="Layer_1" xmlns="http://www.w3.org/2000/svg" xmlns:xlink="http://www.w3.org/1999/xlink" x="0px" y="0px"
	 viewBox="0 0 600 328" style="enable-background:new 0 0 600 328;" xml:space="preserve">
<style type="text/css">
	.st0{fill:none;stroke:#221F1F;stroke-miterlimit:10;}
	.st1{fill:none;stroke:#000000;stroke-miterlimit:10;}
	.st2{fill:#FFFFFF;stroke:#000000;stroke-miterlimit:10;}
	.st3{fill:#231F20;}
	.st4{fill:none;stroke:#231F20;stroke-miterlimit:10;}
</style>
<g>
	<path class="st0" d="M402.11,226.01c0,0-0.18-1.58,1.5-1.76c0,0,4.12-0.64,7.88,0c0,0,1,0.14,1.18,0.9c0,0,0.18,0.5,0.11,0.72
		l-0.36,0.43c0,0,0.04,0.21-0.07,0.25c0,0-0.04,0.93,0.47,1.72c0,0,0.79,1.36,0.25,1.65c0,0-0.39,0.04-0.43,0.9
		c0,0,0.21,6.05,0.9,8.31c0,0,1.52,5.02,1.76,5.4c0,0,2.82,6.88,2.77,8.65c0,0-0.17,0.5-0.15,0.8c0,0.01,0,0.02,0,0.04
		c0.04,0.3,1.58,10.89,1.01,14.02l-0.05,0.74c0,0,0.24,0.21,0.24,0.55c0,0-1.28,11.22-1.96,14.63c0,0-0.43,4.05,1.11,7.49
		c0,0,1.93,6.2,0.39,9.53c0,0-0.72,1.22-3.8,1.43c0,0-10.17,1.07-14.69-0.25c0,0-2.83-0.14-3.65-1.47c0,0-1.68-2.08,0.43-9.31
		c0,0,1.5-5.66,0.64-8.49c0,0-1.54-13-1.58-13.18c0,0,0.04-0.9,0.21-0.97c0,0-0.32-11,1.11-14.8c0,0-0.57-0.43-0.39-1
		c0,0,1.54-5.52,2.62-7.81c0,0,2.15-4.19,2.51-9.85c0,0,0.32-4.19,0.21-4.76c0,0-0.23-0.5-0.5-0.61c0,0-0.5-0.32,0.29-1.7
		c0,0,0.43-1.27,0.47-1.5C402.54,226.68,402.65,226.25,402.11,226.01z"/>
	<path class="st1" d="M191.91,207.88c0,0,8.52-1.53,10.21,3.37c0,0,0.84,1.92,0.82,3.98c-0.02,2.24-0.87,4.88-1.03,5.42
		c-0.21,0.69-1.55,3.29-3.64,4.42c-1.99,1.08-4.93,0.64-5.25-0.42c-0.21-0.68-0.98-4.3,1.15-5.48c3.75-2.08,5.56-5.46,4.17-6.24
		c0,0-3.06-5.52-21.14,10.88c0,0-28.95,29.72-27.42,51.63c0,0-2.3,25.28,39.53,12.41c0,0,49.94-19.46,72.31,10.26
		c0,0-28.65-13.02-33.55,0.77c0,0-6.59-19-50.4-5.21c0,0-9.35,2.91-18.54,2.91c0,0-23.75,0.31-22.67-21.75
		C136.45,274.83,136.45,228.1,191.91,207.88z"/>
	<path class="st1" d="M201.71,246.49c0,0,5.67-11.34,0.46-15.47c0,0-10.57-5.52-20.38,8.43c0,0-20.07,20.07-12.56,33.55
		c0,0,7.2,7.81,20.68-8.43c0,0,7.66-9.04,10.26-14.4c0,0,2.76-0.61,3.68-0.31c0,0,3.22-4.9,4.14-5.97
		C208,243.88,204.32,247.25,201.71,246.49z"/>
	<path class="st1" d="M191.6,242.96c0,0,3.83,4.6,6.28,3.22c0,0,4.9-7.51,1.99-11.49C199.88,234.69,192.68,232.85,191.6,242.96z"/>
	<path class="st1" d="M188.08,244.19c0,0,2.3,4.6,7.66,5.82c0,0-8.27,17.62-15.93,15.17C179.81,265.18,175.82,259.51,188.08,244.19z
		"/>
	<path class="st1" d="M382.33,269.62c0,0,5.67-11.34,0.46-15.47c0,0-10.57-5.52-20.38,8.43c0,0-20.07,20.07-12.56,33.55
		c0,0,7.2,7.81,20.68-8.43c0,0,7.66-9.04,10.26-14.4c0,0,2.76-0.61,3.68-0.31c0,0,3.22-4.9,4.14-5.97
		C388.62,267.02,384.94,270.39,382.33,269.62z"/>
	<path class="st1" d="M372.22,266.1c0,0,3.83,4.6,6.28,3.22c0,0,4.9-7.51,1.99-11.49C380.5,257.82,373.3,255.99,372.22,266.1z"/>
	<path class="st1" d="M368.7,267.32c0,0,2.3,4.6,7.66,5.82c0,0-8.27,17.62-15.93,15.17C360.43,288.31,356.44,282.64,368.7,267.32z"
		/>
	<path class="st1" d="M228.83,229.94c0,0,7.2-0.77,6.74,5.67c0,0-0.46,11.18-6.89,10.72c0,0-4.6,0.15-1.53-5.82
		c0,0,2.45-3.22,5.36-3.22c0,0,1.84-2.3-2.14-2.91c0,0-12.72,2.91-20.99,29.41c0,0,2.14,11.64,15.17-3.68l3.68-4.14
		c0,0-1.99,6.89-3.83,9.19c0,0-9.5,10.26-17.62,9.8c0,0-10.11,0.31-8.43-9.35C198.34,265.64,201.56,237.75,228.83,229.94z"/>
	<path class="st1" d="M263.3,230.86l8.73,0.15c0,0-16.85,28.65-18.69,31.41c0,0-2.14,5.97,3.83,1.07c0,0,8.89-8.43,9.96-10.88h3.06
		c0,0-13.18,21.45-24.05,22.37c0,0-5.06,0.31-5.06-6.28c0,0-4.9,6.13-11.34,6.28c0,0-5.52-0.61-4.75-6.13c0,0,0.61-11.95,9.96-20.99
		c0,0,13.33-18.54,22.67-17.92c0,0,3.52-0.15,4.44,2.14C262.07,232.09,263.61,232.24,263.3,230.86z"/>
	<path class="st1" d="M239.25,256.29c0,0-3.98,8.12-1.84,9.65c0,0,3.06,1.23,7.51-5.97c0,0,12.26-18.08,13.63-22.37
		c0,0,1.69-1.53,0.61-3.22c0,0-2.6-0.46-4.14,2.14C255.03,236.53,243.08,248.02,239.25,256.29z"/>
	<path class="st1" d="M463.26,256.6l8.73,0.15c0,0-16.85,28.65-18.69,31.41c0,0-2.14,5.97,3.83,1.07c0,0,8.89-8.43,9.96-10.88h3.06
		c0,0-13.18,21.45-24.05,22.37c0,0-5.06,0.31-5.06-6.28c0,0-4.9,6.13-11.34,6.28c0,0-5.52-0.61-4.75-6.13c0,0,0.61-11.95,9.96-20.99
		c0,0,13.33-18.54,22.67-17.92c0,0,3.52-0.15,4.44,2.14C462.04,257.82,463.57,257.98,463.26,256.6z"/>
	<path class="st1" d="M439.21,282.03c0,0-3.98,8.12-1.84,9.65c0,0,3.06,1.23,7.51-5.97c0,0,12.26-18.08,13.63-22.37
		c0,0,1.69-1.53,0.61-3.22c0,0-2.6-0.46-4.14,2.14C454.99,262.27,443.04,273.76,439.21,282.03z"/>
	<polygon class="st1" points="280.61,238.52 289.96,238.67 294.25,231.01 285.51,231.17 	"/>
	<path class="st1" d="M403.09,223.11c0,0-21.83-21.51-39.45-12.31c0,0-26.81,13.48-23.44,31.71c0,0,13.33,9.8,23.9-19.76
		c0,0,5.97-15.93-9.8-14.4c0,0-22.67,3.37-39.98,26.66c0,0-22.98,27.73-22.37,45.96c0,0,0,15.78,13.48,15.63
		c0,0,29.11-1.53,33.7-36.15c0,0,1.99-8.89-6.28-8.58c0,0-20.38,3.98-20.83,27.27c0,0,5.97-6.59,11.49-8.12
		c0,0,3.68-14.86,10.72-14.4c0,0,7.66,5.67-8.73,24.97c0,0-17.46,19-20.99-1.69c0,0,2.14-21.14,17-37.53
		c0,0,22.67-30.95,37.38-30.03c0,0,4.29,2.14,7.51,1.23c0,0,5.52-1.38,12.1,3.06c0,0,15.32,8.58,17.77,10.72
		c0,0,11.96,2.76,13.42,1.46c0.8-0.72,22.71-11.41,23.44-12.24C433.99,215.6,406.77,227.47,403.09,223.11z"/>
	<path class="st1" d="M361.65,215.08c0,0,1.38,11.49-7.81,19.46c0,0-11.95,12.87-11.18,3.22
		C342.66,237.75,343.27,227.34,361.65,215.08z"/>
	<path class="st1" d="M433.66,214.32c0,0,2.76-1.38,4.14-2.76c0,0,7.58,4.83,8.27,5.74c0,0-1.61,1.61-1.15,2.99
		C444.92,220.29,438.25,215,433.66,214.32z"/>
	<circle class="st1" cx="403.13" cy="218.95" r="0.57"/>
	<circle class="st1" cx="413.78" cy="215.96" r="0.65"/>
	<circle class="st1" cx="405.54" cy="207.19" r="0.77"/>
	<circle class="st1" cx="427.91" cy="225.5" r="0.54"/>
	<circle class="st1" cx="429.02" cy="207.84" r="2.11"/>
	<circle class="st1" cx="417.69" cy="210.68" r="0.73"/>
	<circle class="st1" cx="408.95" cy="210.75" r="0.42"/>
	<circle class="st1" cx="400.34" cy="199.61" r="0.84"/>
	<circle class="st1" cx="411.33" cy="198.73" r="0.73"/>
</g>
<path class="st0" d="M140.63,67.87c0,0-0.18-1.6,1.53-1.79c0,0,4.19-0.66,8.02,0c0,0,1.02,0.15,1.2,0.91c0,0,0.18,0.51,0.11,0.73
	l-0.36,0.44c0,0,0.04,0.22-0.07,0.26c0,0-0.04,0.95,0.47,1.75c0,0,0.8,1.39,0.26,1.68c0,0-0.4,0.04-0.44,0.91
	c0,0,0.22,6.16,0.91,8.46c0,0,1.54,5.1,1.79,5.49c0,0,2.87,7,2.82,8.8c0,0-0.17,0.5-0.15,0.81c0,0.01,0,0.02,0,0.04
	c0.04,0.3,1.61,11.09,1.02,14.27l-0.05,0.75c0,0,0.24,0.22,0.24,0.56c0,0-1.3,11.42-1.99,14.89c0,0-0.44,4.12,1.13,7.62
	c0,0,1.97,6.31,0.4,9.7c0,0-0.73,1.24-3.86,1.46c0,0-10.35,1.09-14.95-0.26c0,0-2.88-0.15-3.72-1.49c0,0-1.71-2.11,0.44-9.48
	c0,0,1.53-5.76,0.66-8.64c0,0-1.57-13.23-1.6-13.42c0,0,0.04-0.91,0.22-0.98c0,0-0.33-11.19,1.13-15.06c0,0-0.58-0.44-0.4-1.02
	c0,0,1.57-5.61,2.66-7.95c0,0,2.19-4.27,2.55-10.03c0,0,0.33-4.27,0.22-4.85c0,0-0.24-0.51-0.51-0.62c0,0-0.51-0.33,0.29-1.73
	c0,0,0.44-1.29,0.47-1.53C141.07,68.55,141.18,68.11,140.63,67.87z"/>
<path class="st1" d="M92.04,68.95c0,0,8.67-1.56,10.39,3.43c0,0,0.85,1.95,0.84,4.05c-0.02,2.28-0.89,4.97-1.05,5.52
	c-0.21,0.7-1.58,3.35-3.7,4.5c-2.02,1.1-5.02,0.65-5.34-0.43c-0.21-0.69-1-4.38,1.17-5.57c3.82-2.11,5.65-5.56,4.25-6.35
	c0,0-3.12-5.61-21.52,11.07c0,0-29.47,30.25-27.91,52.54c0,0-2.34,25.73,40.23,12.63c0,0,32.74-8.11-11.85,5.92
	c0,0-9.51,2.96-18.87,2.96c0,0-24.17,0.31-23.08-22.14C35.6,137.08,35.6,89.53,92.04,68.95z"/>
<path class="st1" d="M124.78,115.26c0,0,5.77-11.54,0.47-15.75c0,0-10.76-5.61-20.74,8.58c0,0-20.42,20.42-12.79,34.15
	c0,0,7.33,7.95,21.05-8.58c0,0,7.8-9.2,10.45-14.66c0,0,2.81-0.62,3.74-0.31c0,0,3.27-4.99,4.21-6.08
	C131.18,112.61,127.43,116.04,124.78,115.26z"/>
<path class="st1" d="M114.49,111.67c0,0,3.9,4.68,6.39,3.27c0,0,4.99-7.64,2.03-11.69C122.91,103.25,115.59,101.38,114.49,111.67z"
	/>
<path class="st1" d="M110.91,112.92c0,0,2.34,4.68,7.8,5.92c0,0-8.42,17.93-16.22,15.44C102.49,134.28,98.43,128.51,110.91,112.92z"
	/>
<g>
	<path class="st1" d="M222.08,101.22c0,0,7.33-0.78,6.86,5.77c0,0,5.15,11.38-1.4,10.91c0,0-4.91,0.47-1.79-5.61
		c0,0,0.35-1.21,0.08-3.59c0,0,1.87-2.34-2.18-2.96c0,0-12.94,2.96-21.36,29.94c0,0,29,4.76,47.48-8.58l7.25-2.22
		c0,0-5.53,5.03-7.41,7.37c0,0-41.71,15.28-49.97,14.81c0,0-10.29,0.31-8.58-9.51C191.05,137.55,194.32,109.18,222.08,101.22z"/>
	<path class="st1" d="M225.74,112.29c0,0,1.33,9.98-18.63,2.49h-6.08l-3.9,6.7l10.29,0.62c0,0,21.36,2.18,23.08-5.3"/>
</g>
<path class="st1" d="M94.38,148.15c0,0,39.76-4.37,52.08,0.31c0,0,41.01,5.77,43.66-7.17c0,0,2.63,4.54,4.85,5.04
	c0.32,0.07,0.63,0.06,0.92-0.05c2.34-0.94-18.87,4.68-45.53,7.33c0,0-14.81-8.73-60.81-1.09C89.55,152.52,83.62,150.96,94.38,148.15
	z"/>
<path class="st1" d="M156,91.64c0,0,2.69,12.12,10,1.35c0,0,9.43-16.93,20.97-13.27c0,0,5,2.31,2.69,4.81c0,0-3.46-2.5-5.39-1.15
	c0,0-11.35,2.89-11.16,11.16c0,0-6.35,8.27-10.2,8.08c0,0-6.16,1.92-5.39,13.66"/>
<path class="st1" d="M157.73,114.73c0,0,7.31,25.39,13.27,29.82s9.04,1.15,10.96-1.73c0,0,4.42-14.81-4.42-17.5
	c0,0-11.93,6.35-10,20.2c0,0-4.81,1.15-25.2,1.54l8.46,2.69c0,0,16.54-2.89,17.7-7.5c0,0,0.38-5,2.31-4.42c0,0,5.96-4.23,7.5-2.31
	c0,0,5.58,1.73-0.38,7.5c0,0-5.39-2.12-12.7-16.54c0,0-6.54-14.04-6.73-18.27"/>
<g>
	<path class="st1" d="M380.18,103.85c-3.71,4.69-6.37,11.22-6.68,20.3c0,0,0.29,8.35,2.01,11.51c0,0-21.01,29.65-45.19,2.01
		c0,0-11.53-24.25-2.05-49.13"/>
	<path class="st1" d="M309.31,84.44c0,0-28.78,51.24,23.6,71.1c0,0,29.36,9.21,45.19-12.67c0,0,13.53,19.86,41.16,12.67
		c0,0,30.51-6.33,23.03-41.74c0,0-1.07-6.12-6.25-11.89"/>
	<polyline class="st1" points="484.9,100.27 467.63,120.7 467.63,100.8 	"/>
	<path class="st1" d="M509.21,106.47c-3.27,4.7-5.63,10.91-6.17,19.12c0,0-0.58,15.54,7.48,22.45c0,0-4.89,2.01-8.92-4.32
		l-17.85-27.06l14.56-17.71"/>
	<path class="st1" d="M447.77,98.21v57.04l19.57,0.29l0.29-23.89l2.88-3.74l9.5,15.26c0,0,9.5,17.56,22.74,13.53
		c0,0,10.94-1.44,12.67-4.89c0,0,34.25,19.29,47.5-13.24c0,0-21.59,19.57-34.54,2.59c0,0-4.61-9.79-4.32-11.8
		c0,0,37.42-1.44,38.57-17.85c0,0,2.41-6.74-1.41-12.31"/>
	<path class="st2" d="M543.91,112.07c0,0,1.73,11.8-19.57,11.8c0,0,0.2-9.75,2.72-17.49"/>
	<path class="st2" d="M418.85,106.98c1.27,4.28,1.91,10.26,1.28,18.62c-2.3,30.51-13.24,26.77-13.24,26.77s-14.68-1.44-12.67-28.21
		c0,0,0.46-9.78,3.02-17.8"/>
	<g>
		<g>
			<path class="st3" d="M309.12,84.65c-0.72,0.14-0.83,0.24-0.33,0.31c0.23,0.08,0.46,0.17,0.67,0.29c0.3,0.15,0.58,0.33,0.87,0.49
				c0.62,0.35,1.24,0.62,1.93,0.78c1.42,0.33,2.94,0.36,4.39,0.5c1.6,0.15,3.2,0.3,4.8,0.45c1.59,0.15,3.16,0.35,4.76,0.17
				c0.55-0.06,1.58-0.2,1.94-0.68c0.35-0.47-0.31-0.48-0.67-0.44c-1.71,0.19-3.5-0.14-5.2-0.3c-1.84-0.17-3.67-0.35-5.51-0.52
				c-0.8-0.08-1.63-0.13-2.41-0.35c-0.84-0.24-1.53-0.77-2.31-1.15c-1.52-0.73-3.06-0.5-4.58,0.12c-0.37,0.15-0.86,0.46-0.37,0.72
				C307.6,85.28,308.67,84.83,309.12,84.65L309.12,84.65z"/>
		</g>
	</g>
	<g>
		<g>
			<path class="st3" d="M380.4,105.82c-0.3,0.13-0.09,0,0.17,0.16c0.24,0.15,0.37,0.35,0.47,0.61c0.33,0.82,0.51,1.47,1.51,1.65
				c1.08,0.19,1.87-0.36,2.83-0.73c0.62-0.23,0.8-0.08,1.26,0.38c0.59,0.6,1.23,1.01,2.1,0.95c0.49-0.04,1.16-0.2,1.54-0.55
				c0.3-0.28-1.18-0.05-0.56,0.21c0.19,0.08,0.41,0.12,0.62,0.15c0.89,0.13,1.75-0.09,2.57-0.41c0.5-0.19,1.06-0.57,1.59-0.48
				c0.65,0.11,1.6-0.25,1.89-0.87c0.31-0.67-0.28-1.07-0.87-1.17c-1.35-0.23-2.46,0.37-3.68,0.81c-0.45,0.16-0.37,0.05-0.84-0.09
				c-0.76-0.22-1.54-0.06-2.21,0.33c-0.11,0.06-0.22,0.13-0.33,0.21c1.04,0.1,1.36,0.03,0.97-0.2c-0.12-0.21-0.4-0.42-0.57-0.58
				c-0.49-0.47-1.06-0.76-1.74-0.86c-0.69-0.1-1.42,0-2.08,0.2c-0.35,0.1-0.7,0.24-1.04,0.38c-0.14,0.06-0.28,0.13-0.42,0.2
				c-0.27,0.11-0.27,0.13-0.01,0.08c0.2,0.07,0.41,0.14,0.61,0.2c-0.25-0.15-0.31-0.82-0.46-1.09c-0.25-0.45-0.63-0.8-1.07-1.05
				c-1.1-0.62-2.38-0.54-3.51-0.07c-0.53,0.22-1.09,0.87-0.7,1.45C378.85,106.23,379.85,106.05,380.4,105.82L380.4,105.82z"/>
		</g>
	</g>
	<g>
		<g>
			<path class="st3" d="M420.66,107.38c-0.04-0.07-0.06-0.14-0.12-0.2c-0.96,0.07-1.24,0.19-0.83,0.38
				c0.08,0.04,0.16,0.09,0.24,0.15c0.32,0.21,0.59,0.48,0.9,0.71c0.73,0.54,1.57,0.71,2.46,0.6c1.9-0.23,3.04-1.61,3.8-3.23
				c-0.9,0.17-1.8,0.34-2.7,0.51c0.96,1.27,2.6,1.69,4.11,1.35c0.76-0.17,1.47-0.51,2.07-1.01c0.4-0.34,1.14-1.07,1.17-1.64
				c0.18-0.28-0.04-0.24-0.64,0.12c-0.69,0.02-0.89,0.11-0.6,0.27c0.05,0.08,0.26,0.19,0.34,0.25c0.25,0.18,0.51,0.33,0.81,0.42
				c0.89,0.26,1.84,0,2.63-0.41c1.43-0.74,2.86-1.68,3.93-2.9c0.42-0.48,0.29-1-0.32-1.21c-0.62-0.21-1.61,0.05-2.05,0.55
				c-0.8,0.91-1.8,1.35-2.72,2.08c-0.34,0.15-0.34,0.19,0,0.13c0.31,0.03,0.33-0.01,0.08-0.13c-0.09-0.12-0.38-0.3-0.5-0.37
				c-0.45-0.27-0.97-0.39-1.49-0.34c-1.24,0.11-1.87,0.8-2.41,1.82c-0.49,0.92-1.1,0.64-1.73-0.18c-0.56-0.74-2.35-0.25-2.7,0.51
				c-0.18,0.39-0.36,0.8-0.61,1.16c-0.09,0.14-0.23,0.4-0.4,0.45c0.04-0.01,0.24-0.02,0.11-0.09c-0.82-0.44-1.34-1.16-2.28-1.41
				c-1.23-0.32-4.31,0.65-3.43,2.45C418.31,109.28,421.16,108.39,420.66,107.38L420.66,107.38z"/>
		</g>
	</g>
	<g>
		<g>
			<path class="st3" d="M447.23,100.01c2.88,1.27,5.65,2.21,8.84,1.91c1.62-0.15,3.22-0.5,4.84-0.59c1.63-0.09,3.24,0.01,4.85,0.26
				c0.64,0.1,1.54-0.15,2.05-0.55c0.46-0.36,0.37-0.66-0.2-0.75c-3.13-0.48-6.18-0.27-9.3,0.18c-1.51,0.22-2.96,0.3-4.45-0.07
				c-1.48-0.36-2.88-0.99-4.27-1.6c-0.57-0.25-1.52,0.06-2.03,0.34C447.21,99.33,446.64,99.75,447.23,100.01L447.23,100.01z"/>
		</g>
	</g>
	<g>
		<g>
			<path class="st3" d="M485.85,100.55c0.45-0.57,1-1.23,1.64-1.6c-0.33,0.14-0.66,0.27-0.99,0.41c0.07-0.02,0.14-0.04,0.21-0.06
				c-0.35,0.05-0.71,0.1-1.06,0.14c0.33,0.02,0.9,1.06,1.18,1.29c0.44,0.37,0.98,0.61,1.53,0.78c1.26,0.38,2.65,0.31,3.94,0.12
				c3.17-0.45,6.28-1.68,8.98-3.39c0.47-0.3,0.35-0.59-0.17-0.64c-0.66-0.06-1.5,0.2-2.05,0.55c-1.43,0.91-2.97,1.63-4.61,2.07
				c-1.26,0.34-2.64,0.57-3.91,0.09c-0.63-0.24-1.12-0.65-1.53-1.17c-0.47-0.6-0.84-0.91-1.64-0.89c-1.93,0.05-3.26,1.4-4.38,2.8
				c-0.33,0.41,1.07,0.3,1.16,0.28C484.74,101.24,485.46,101.04,485.85,100.55L485.85,100.55z"/>
		</g>
	</g>
	<g>
		<g>
			<path class="st3" d="M507.48,106.55c1.51,1.21,3.34,1.85,5.29,1.83c1.07-0.01,2.09-0.21,3.1-0.56c0.48-0.17,0.69-0.33,1.08,0.03
				c0.32,0.29,0.54,0.68,0.82,1.01c3.04,3.51,8.76-1.11,11.16-3.3c0.47-0.43,0.27-0.94-0.3-1.1c-0.66-0.19-1.55,0.1-2.05,0.55
				c-1.29,1.18-2.76,2.33-4.36,3.06c-0.7,0.32-1.17,0.32-1.7-0.28c-0.45-0.5-0.77-1.08-1.34-1.47c-1.55-1.07-3.15-0.07-4.75,0.25
				c-1.49,0.3-3.11-0.25-4.27-1.18c-0.54-0.43-1.33-0.33-1.93-0.07C507.94,105.45,506.94,106.12,507.48,106.55L507.48,106.55z"/>
		</g>
	</g>
	<g>
		<g>
			<path class="st3" d="M545.03,112.1c0.88-0.97,1.77-1.94,2.65-2.92c-0.89,0.2-1.79,0.39-2.68,0.59c1.42,1.18,3.7,0.55,5.22-0.08
				c1.88-0.79,3.57-2.03,5.21-3.23c1.52-1.12,2.94-2.35,4.02-3.91c0.49-0.7,0.91-1.45,1.4-2.15c0.32-0.46,0.98-1.41,1.45-1.56
				c0.29-0.09,1.45-0.4,1.32-0.88c-0.12-0.46-1.34-0.18-1.58-0.1c-1.5,0.47-2.69,1.21-3.64,2.47c-0.92,1.21-1.6,2.59-2.62,3.72
				c-1.16,1.28-2.57,2.28-3.98,3.25c-0.73,0.5-1.46,1.03-2.25,1.46c-0.72,0.39-1.14,0.57-1.82,0.01c-0.58-0.48-2.23,0.1-2.68,0.59
				c-0.88,0.97-1.77,1.94-2.65,2.92c-0.44,0.48,0.39,0.55,0.7,0.53C543.7,112.78,544.61,112.56,545.03,112.1L545.03,112.1z"/>
		</g>
	</g>
	<circle class="st4" cx="309.98" cy="73.6" r="1.51"/>
	<circle class="st4" cx="323.04" cy="78.89" r="1.62"/>
	<circle class="st4" cx="326.71" cy="69.6" r="0.54"/>
	<circle class="st4" cx="316.67" cy="56.11" r="2.37"/>
	<circle class="st4" cx="320.23" cy="64.42" r="1.4"/>
	<circle class="st4" cx="336.53" cy="60.21" r="1.73"/>
	<circle class="st4" cx="306.42" cy="42.62" r="1.62"/>
	<ellipse class="st4" cx="326.28" cy="52.23" rx="0.54" ry="0.43"/>
	<ellipse class="st4" cx="314.73" cy="82.34" rx="0.65" ry="0.76"/>
	<circle class="st4" cx="380.25" cy="96.37" r="2.91"/>
	<circle class="st4" cx="395.47" cy="94.11" r="0.86"/>
	<circle class="st4" cx="387.59" cy="86.44" r="2.05"/>
	<ellipse class="st4" cx="395.79" cy="100.69" rx="0.11" ry="0.54"/>
	<circle class="st4" cx="388.67" cy="95.94" r="0.32"/>
	<circle class="st4" cx="393.96" cy="75.97" r="1.3"/>
	<circle class="st4" cx="384.14" cy="67.45" r="0.97"/>
	<ellipse class="st4" cx="383.49" cy="76.73" rx="0.32" ry="0.54"/>
	<circle class="st4" cx="395.47" cy="67.55" r="1.08"/>
	<circle class="st4" cx="434.44" cy="97.67" r="0.76"/>
	<circle class="st4" cx="426.02" cy="98.53" r="0.76"/>
	<circle class="st4" cx="427.42" cy="91.09" r="2.81"/>
	<circle class="st4" cx="433.79" cy="82.13" r="1.19"/>
	<circle class="st4" cx="420.94" cy="78.78" r="1.3"/>
	<circle class="st4" cx="428.07" cy="84.61" r="0.86"/>
	<circle class="st4" cx="429.69" cy="75.87" r="0.54"/>
	<circle class="st4" cx="424.29" cy="70.47" r="0.97"/>
	<circle class="st4" cx="438.43" cy="64.96" r="0.86"/>
	<circle class="st4" cx="465.31" cy="96.59" r="1.62"/>
	<circle class="st4" cx="458.51" cy="94.11" r="1.08"/>
	<circle class="st4" cx="464.66" cy="89.25" r="0.76"/>
	<circle class="st4" cx="450.84" cy="86.23" r="0.54"/>
	<circle class="st4" cx="458.94" cy="80.29" r="0.43"/>
	<circle class="st4" cx="451.28" cy="75" r="0.97"/>
	<circle class="st4" cx="449.01" cy="95.62" r="0.65"/>
	<circle class="st4" cx="455.38" cy="97.45" r="0.76"/>
	<circle class="st4" cx="459.37" cy="85.69" r="0.86"/>
	<circle class="st4" cx="465.85" cy="80.51" r="1.08"/>
	<circle class="st4" cx="464.66" cy="61.62" r="1.19"/>
	<circle class="st4" cx="382.3" cy="55.9" r="0.22"/>
	<circle class="st4" cx="338.48" cy="82.88" r="0.43"/>
	<circle class="st4" cx="486.68" cy="92.06" r="0.76"/>
	<circle class="st4" cx="502.23" cy="93.57" r="2.48"/>
	<circle class="st4" cx="494.02" cy="96.16" r="0.32"/>
	<circle class="st4" cx="501.15" cy="81.26" r="1.84"/>
	<circle class="st4" cx="492.51" cy="84.07" r="1.19"/>
	<circle class="st4" cx="495.64" cy="90.65" r="0.43"/>
	<circle class="st4" cx="491" cy="73.06" r="2.05"/>
	<circle class="st4" cx="498.77" cy="65.29" r="0.97"/>
	<circle class="st4" cx="548.86" cy="102.64" r="2.27"/>
	<circle class="st4" cx="554.36" cy="92.17" r="2.81"/>
	<circle class="st4" cx="544.75" cy="83.85" r="0.97"/>
	<path class="st4" d="M544.22,95.84c0,0.12,0,0.22,0,0.22S544.22,95.95,544.22,95.84s0-0.22,0-0.22S544.22,95.72,544.22,95.84z"/>
	<circle class="st4" cx="553.82" cy="98.32" r="0.54"/>
	<circle class="st4" cx="554.36" cy="78.13" r="1.08"/>
	<circle class="st4" cx="546.16" cy="72.95" r="1.08"/>
	<circle class="st4" cx="537.63" cy="87.52" r="0.97"/>
	<circle class="st4" cx="521.87" cy="99.61" r="1.19"/>
	<circle class="st4" cx="519.5" cy="104.58" r="0.76"/>
	<circle class="st4" cx="512.8" cy="101.56" r="0.54"/>
	<circle class="st4" cx="516.58" cy="88.28" r="1.94"/>
	<circle class="st4" cx="517.01" cy="94.11" r="1.08"/>
	<circle class="st4" cx="524.79" cy="94.97" r="1.3"/>
	<circle class="st4" cx="525.76" cy="84.93" r="0.97"/>
	<circle class="st4" cx="516.37" cy="76.41" r="1.3"/>
	<circle class="st4" cx="525.11" cy="65.72" r="0.54"/>
	<circle class="st4" cx="564.83" cy="87.31" r="0.54"/>
</g>
</svg>
