<?xml version="1.0" encoding="utf-8"?>
<!-- Generator: Adobe Illustrator 25.1.0, SVG Export Plug-In . SVG Version: 6.00 Build 0)  -->
<svg version="1.1" id="Layer_1" xmlns="http://www.w3.org/2000/svg" xmlns:xlink="http://www.w3.org/1999/xlink" x="0px" y="0px"
	 viewBox="0 0 600 328" style="enable-background:new 0 0 600 328;" xml:space="preserve">
<style type="text/css">
	.st0{fill:#FFFFFF;}
	.st1{fill:#231F20;}
</style>
<rect y="-11" class="st0" width="600" height="350"/>
<polygon class="st1" points="198.38,177.61 104.96,177.61 116.7,148.79 210.12,148.79 "/>
<polygon class="st1" points="92.51,177.93 71.37,177.93 83.11,149.01 104.25,149.01 "/>
<polygon class="st1" points="61.01,177.93 48.99,177.93 60.73,149.06 72.75,149.06 "/>
<polygon class="st1" points="38.81,177.94 32.66,177.94 44.4,149.11 50.55,149.11 "/>
<polygon class="st1" points="507.02,149.01 528.16,149.01 516.42,177.94 495.28,177.94 "/>
<polygon class="st1" points="538.52,149.01 550.54,149.01 538.8,177.89 526.78,177.89 "/>
<polygon class="st1" points="560.73,149.01 566.88,149.01 555.14,177.84 548.99,177.84 "/>
<g>
	<path class="st1" d="M234.29,110.62c-0.33,0-0.65,0.03-0.97,0.08c-0.32,0.05-0.63,0.15-0.95,0.29c-0.32,0.14-0.65,0.34-1,0.59
		c-0.34,0.25-0.71,0.58-1.1,0.98c-0.23,0.25-0.6,0.67-1.1,1.26c-0.5,0.6-1.11,1.37-1.82,2.32l-18.17,23.64h-0.88l1.32-18.7
		l-14.58,18.7h-0.82l1.68-24.33c0.05-0.8,0.09-1.45,0.11-1.92c0.02-0.48,0.03-0.84,0.02-1.1c0-0.26-0.03-0.45-0.07-0.57
		c-0.04-0.12-0.11-0.23-0.2-0.31c-0.12-0.33-0.36-0.57-0.72-0.71c-0.36-0.14-0.87-0.22-1.51-0.22l0.33-0.78h10.78l-0.33,0.78h-0.52
		c-1.05,0-1.88,0.32-2.48,0.97c-0.13,0.14-0.25,0.29-0.35,0.45c-0.1,0.16-0.2,0.38-0.28,0.68c-0.08,0.3-0.16,0.69-0.23,1.18
		c-0.07,0.49-0.14,1.14-0.21,1.94l-1.26,16.43l10.8-13.95c0.14-1.08,0.22-2.08,0.25-3.02c0.01-0.4,0.02-0.81,0.02-1.21
		c0-0.4-0.02-0.78-0.06-1.14c-0.04-0.36-0.1-0.68-0.17-0.96c-0.08-0.28-0.18-0.5-0.31-0.66c-0.18-0.24-0.42-0.42-0.71-0.54
		c-0.29-0.11-0.74-0.17-1.36-0.17l0.33-0.78h11.39l-0.33,0.78h-0.76c-1.55,0-2.6,0.63-3.14,1.9c-0.16,0.39-0.31,0.9-0.43,1.52
		c-0.12,0.62-0.21,1.39-0.26,2.3l-1.12,15.94l12.41-16.13c0.49-0.65,0.92-1.22,1.27-1.7c0.36-0.49,0.64-0.91,0.85-1.27
		c0.21-0.36,0.35-0.67,0.43-0.93c0.07-0.26,0.07-0.49,0-0.69c-0.11-0.37-0.39-0.62-0.83-0.74c-0.44-0.12-0.99-0.18-1.67-0.18
		l0.33-0.78h8.71L234.29,110.62z"/>
	<path class="st1" d="M246.48,139.09h-22.54l0.35-0.82h1.01c0.13,0,0.3-0.01,0.5-0.03c0.2-0.02,0.43-0.06,0.67-0.11
		c0.24-0.05,0.49-0.12,0.74-0.2c0.25-0.09,0.48-0.19,0.68-0.32s0.39-0.27,0.56-0.43c0.18-0.16,0.36-0.37,0.54-0.65
		c0.19-0.27,0.39-0.62,0.6-1.03c0.21-0.42,0.46-0.95,0.73-1.6l8.06-18.98c0.4-0.95,0.67-1.71,0.82-2.28
		c0.14-0.57,0.16-0.95,0.07-1.13c-0.27-0.59-1.01-0.89-2.23-0.89h-1.01l0.33-0.78h22.54l-2.36,6.36h-0.86
		c0.08-0.42,0.16-0.82,0.25-1.22c0.09-0.4,0.14-0.77,0.16-1.13c0.02-0.36-0.02-0.69-0.11-0.98s-0.28-0.55-0.57-0.77
		c-0.29-0.22-0.7-0.39-1.23-0.51c-0.53-0.12-1.23-0.18-2.09-0.18h-8.11l-4.9,11.54h6.45c0.99,0,1.81-0.08,2.44-0.24
		s1.18-0.41,1.62-0.75c0.45-0.34,0.84-0.78,1.19-1.31c0.35-0.53,0.73-1.16,1.14-1.89h0.82l-4.31,10.16h-0.82
		c0.22-0.76,0.39-1.42,0.49-1.96c0.1-0.55,0.08-1-0.08-1.35c-0.15-0.35-0.47-0.61-0.96-0.78c-0.49-0.16-1.23-0.25-2.22-0.25h-6.45
		l-4.65,10.96c-0.16,0.39-0.24,0.73-0.23,1.02c0.01,0.3,0.15,0.52,0.43,0.69c0.27,0.17,0.76,0.25,1.45,0.25h4.94
		c0.79,0,1.5-0.03,2.13-0.1c0.63-0.06,1.22-0.18,1.77-0.33c0.55-0.16,1.07-0.38,1.57-0.66c0.5-0.28,1.02-0.63,1.57-1.06
		c0.55-0.42,1.13-0.93,1.76-1.53s1.34-1.3,2.14-2.1h0.88L246.48,139.09z"/>
	<path class="st1" d="M275.84,131.63c-0.47,1.11-1.14,2.16-2.02,3.15c-0.87,0.99-1.88,1.86-3.01,2.6c-1.13,0.74-2.36,1.33-3.67,1.76
		c-1.31,0.43-2.64,0.65-3.99,0.65c-0.99,0-1.86-0.09-2.61-0.26c-0.75-0.17-1.4-0.37-1.95-0.58c-0.56-0.22-1.04-0.41-1.46-0.58
		c-0.42-0.17-0.8-0.26-1.14-0.26s-0.68,0.12-1,0.37c-0.32,0.24-0.66,0.68-1.03,1.32h-0.78l4.27-10.05h0.78
		c-0.45,1.51-0.64,2.79-0.55,3.85c0.09,1.06,0.39,1.92,0.89,2.59c0.5,0.67,1.17,1.15,2.01,1.46c0.84,0.3,1.78,0.45,2.82,0.45
		c0.89,0,1.76-0.13,2.59-0.39c0.84-0.26,1.6-0.61,2.29-1.05c0.69-0.44,1.29-0.95,1.81-1.52s0.91-1.19,1.19-1.83
		c0.31-0.72,0.45-1.35,0.43-1.9c-0.02-0.55-0.2-1.07-0.54-1.58c-0.34-0.51-0.85-1.04-1.51-1.6c-0.66-0.55-1.48-1.19-2.46-1.91
		c-1.32-0.98-2.38-1.85-3.16-2.62c-0.78-0.77-1.34-1.51-1.67-2.22c-0.33-0.71-0.46-1.43-0.38-2.16c0.08-0.73,0.31-1.54,0.69-2.45
		c0.44-1.03,1.05-2.02,1.84-2.94c0.79-0.93,1.7-1.74,2.74-2.45c1.04-0.7,2.17-1.26,3.4-1.68c1.23-0.42,2.49-0.63,3.8-0.63
		c0.85,0,1.58,0.09,2.21,0.26c0.62,0.17,1.17,0.36,1.62,0.57c0.46,0.21,0.86,0.4,1.22,0.56c0.35,0.17,0.69,0.25,1.01,0.25
		c0.33,0,0.66-0.12,0.98-0.36c0.32-0.24,0.7-0.66,1.12-1.28h0.8l-4.3,10.14h-0.8c0.44-1.38,0.65-2.6,0.62-3.64
		c-0.03-1.05-0.26-1.93-0.68-2.64c-0.42-0.71-1.02-1.25-1.79-1.61c-0.77-0.36-1.67-0.54-2.7-0.54c-0.7,0-1.42,0.12-2.15,0.37
		c-0.73,0.24-1.41,0.57-2.05,0.98c-0.63,0.41-1.2,0.89-1.71,1.43c-0.51,0.55-0.89,1.12-1.14,1.73c-0.24,0.57-0.36,1.1-0.35,1.58
		c0.01,0.48,0.18,0.98,0.51,1.49c0.33,0.51,0.84,1.06,1.53,1.65c0.69,0.59,1.59,1.27,2.7,2.05c1.08,0.75,1.95,1.41,2.62,1.97
		c0.67,0.57,1.18,1.05,1.54,1.43c0.68,0.73,1.07,1.63,1.18,2.68C276.55,129.29,276.35,130.42,275.84,131.63z"/>
	<path class="st1" d="M309.92,116.71c0.17-0.53,0.29-0.99,0.37-1.37c0.07-0.38,0.11-0.71,0.12-0.99c0-0.28-0.02-0.52-0.08-0.71
		c-0.05-0.19-0.13-0.38-0.23-0.55c-0.25-0.49-0.63-0.85-1.14-1.09c-0.51-0.24-1.25-0.36-2.23-0.36h-4.14l-9.48,22.34
		c-0.39,0.92-0.65,1.66-0.78,2.22c-0.13,0.56-0.15,0.96-0.06,1.19c0.25,0.59,0.96,0.88,2.13,0.88h1.04l-0.35,0.82h-12.45l0.35-0.82
		h1.06c0.63,0,1.19-0.09,1.69-0.26c0.49-0.17,0.96-0.46,1.42-0.86c0.24-0.23,0.51-0.6,0.81-1.11c0.3-0.51,0.63-1.2,0.99-2.06
		l9.48-22.34h-3.49c-0.59,0-1.1,0.01-1.52,0.04c-0.42,0.03-0.8,0.08-1.12,0.15c-0.33,0.07-0.62,0.16-0.9,0.28
		c-0.27,0.11-0.55,0.27-0.83,0.45c-1.38,0.78-2.58,2.16-3.59,4.14H286l3.23-6.86h24.29l-2.67,6.86H309.92z"/>
	<path class="st1" d="M334.51,116.21c0.12-0.89,0.15-1.64,0.1-2.25c-0.05-0.61-0.24-1.1-0.56-1.48c-0.32-0.37-0.81-0.64-1.45-0.81
		c-0.64-0.17-1.49-0.25-2.56-0.25h-6.47l-4.86,11.45h5.31c0.63,0,1.19-0.06,1.69-0.19c0.49-0.13,0.95-0.34,1.37-0.64
		c0.42-0.3,0.83-0.7,1.23-1.21c0.4-0.51,0.8-1.13,1.22-1.88h0.8l-4.2,9.9h-0.8c0.29-0.69,0.49-1.29,0.59-1.81
		c0.1-0.52,0.07-0.95-0.08-1.28c-0.15-0.34-0.44-0.59-0.86-0.77c-0.42-0.17-1-0.26-1.73-0.26h-5.31l-3.89,9.17
		c-0.4,0.95-0.69,1.68-0.85,2.19c-0.17,0.51-0.19,0.87-0.06,1.09c0.13,0.37,0.4,0.65,0.82,0.83c0.42,0.18,0.88,0.27,1.38,0.27h1.06
		l-0.35,0.82h-12.53l0.35-0.82h1.06c1.15,0,2.16-0.35,3.04-1.06c0.54-0.46,1.18-1.57,1.93-3.32L317.9,115
		c0.23-0.53,0.41-0.99,0.55-1.37c0.14-0.38,0.24-0.7,0.3-0.97c0.06-0.27,0.09-0.49,0.08-0.66c-0.01-0.17-0.04-0.31-0.1-0.41
		c-0.17-0.3-0.45-0.54-0.83-0.71c-0.38-0.17-0.8-0.26-1.26-0.26h-1.06l0.33-0.78h21.74l-2.38,6.36H334.51z"/>
	<path class="st1" d="M364.55,124.3c-0.62,1.47-1.38,2.87-2.29,4.22c-0.9,1.34-1.9,2.59-3,3.73c-1.1,1.14-2.27,2.18-3.53,3.11
		c-1.26,0.93-2.56,1.72-3.9,2.38c-1.35,0.66-2.71,1.17-4.1,1.52c-1.39,0.35-2.76,0.53-4.13,0.53c-1.99,0-3.69-0.37-5.1-1.11
		c-1.42-0.74-2.49-1.79-3.21-3.14c-0.72-1.35-1.05-2.97-0.99-4.86c0.06-1.89,0.58-3.99,1.56-6.29c0.93-2.19,2.16-4.21,3.7-6.07
		c1.54-1.86,3.25-3.47,5.15-4.83c1.89-1.36,3.89-2.42,6-3.18c2.11-0.76,4.2-1.14,6.29-1.14c1.28,0,2.44,0.17,3.48,0.52
		c1.04,0.34,1.94,0.83,2.71,1.47c0.77,0.63,1.38,1.4,1.85,2.31c0.46,0.91,0.76,1.92,0.9,3.04c0.13,1.12,0.09,2.34-0.12,3.65
		C365.59,121.44,365.17,122.83,364.55,124.3z M359.44,124.86c0.96-2.23,1.62-4.22,1.98-5.97c0.36-1.75,0.39-3.23,0.11-4.44
		c-0.28-1.21-0.89-2.13-1.82-2.77c-0.93-0.64-2.2-0.97-3.82-0.98c-1.47,0-2.9,0.31-4.31,0.94c-1.41,0.63-2.76,1.53-4.05,2.7
		c-1.29,1.17-2.49,2.59-3.61,4.27c-1.12,1.68-2.13,3.56-3.02,5.66c-0.88,2.07-1.48,3.96-1.8,5.67c-0.32,1.71-0.36,3.18-0.1,4.41
		s0.82,2.19,1.68,2.87c0.87,0.68,2.05,1.03,3.56,1.05c1.4,0,2.79-0.27,4.18-0.8c1.39-0.53,2.74-1.35,4.05-2.45
		c1.31-1.1,2.55-2.49,3.73-4.17C357.36,129.15,358.45,127.16,359.44,124.86z"/>
	<path class="st1" d="M382.52,139.09l-4.1-13.67c-0.39,0.01-0.74,0.03-1.04,0.05c-0.3,0.02-0.56,0.03-0.79,0.03
		c-0.22,0-0.43,0-0.63-0.01c-0.21-0.01-0.42-0.03-0.65-0.08l-3.6,8.48c-0.79,1.87-1.07,3.01-0.82,3.41
		c0.27,0.65,0.96,0.97,2.07,0.97h1.14l-0.35,0.82h-12.53l0.35-0.82h1.1c1.26,0,2.31-0.39,3.13-1.16c0.48-0.46,1.08-1.53,1.8-3.21
		l8.02-18.89c0.76-1.8,1.06-2.95,0.9-3.45c-0.17-0.3-0.43-0.53-0.77-0.69c-0.34-0.16-0.79-0.24-1.33-0.24h-1.1l0.33-0.78h10.61
		c1.57,0,2.91,0.05,4.02,0.16c1.11,0.11,1.99,0.28,2.63,0.53s1.2,0.58,1.66,1c0.46,0.42,0.8,0.92,1.04,1.5
		c0.23,0.57,0.33,1.22,0.29,1.94c-0.04,0.72-0.24,1.5-0.59,2.33c-0.38,0.91-0.89,1.76-1.52,2.56c-0.63,0.8-1.38,1.52-2.25,2.17
		c-0.87,0.65-1.86,1.21-2.96,1.69c-1.1,0.48-2.32,0.86-3.66,1.13l2.4,8.41c0.27,0.92,0.56,1.69,0.86,2.3s0.66,1.1,1.08,1.48
		c0.42,0.37,0.9,0.65,1.46,0.83c0.56,0.18,1.22,0.31,1.99,0.4l-0.35,0.82H382.52z M388.28,117.7c0.39-0.92,0.6-1.76,0.62-2.51
		c0.03-0.75-0.12-1.4-0.44-1.94c-0.32-0.54-0.8-0.96-1.44-1.27c-0.65-0.31-1.45-0.47-2.4-0.49c-0.37,0-0.86,0.03-1.45,0.1
		s-1.29,0.15-2.09,0.27l-5.18,12.21h1.23c1.44,0,2.75-0.16,3.94-0.48c1.19-0.32,2.26-0.76,3.19-1.33c0.94-0.57,1.74-1.24,2.42-2.02
		C387.36,119.47,387.89,118.62,388.28,117.7z"/>
	<path class="st1" d="M426.9,124.3c-0.87,2.06-2.01,3.98-3.42,5.78c-1.41,1.8-3.07,3.36-4.97,4.7c-1.91,1.34-4.05,2.39-6.43,3.16
		c-2.38,0.77-4.98,1.15-7.8,1.15h-13.09l0.35-0.82h1.1c0.62,0,1.19-0.09,1.7-0.28c0.52-0.19,0.98-0.48,1.38-0.88
		c0.25-0.24,0.53-0.63,0.84-1.16c0.31-0.53,0.65-1.21,1-2.05l8.02-18.89c0.76-1.8,1.06-2.95,0.9-3.45c-0.17-0.3-0.43-0.53-0.77-0.69
		c-0.34-0.16-0.79-0.24-1.33-0.24h-1.1l0.33-0.78h11.88c1.62,0,3.06,0.06,4.31,0.19c1.25,0.13,2.34,0.33,3.27,0.61
		c0.93,0.28,1.72,0.64,2.38,1.08c0.65,0.44,1.2,0.96,1.63,1.56c0.42,0.6,0.74,1.3,0.96,2.09c0.22,0.79,0.33,1.65,0.33,2.59
		c0,0.93-0.12,1.93-0.36,3C427.75,122.04,427.39,123.15,426.9,124.3z M421.93,124.52c0.86-2.03,1.34-3.84,1.43-5.45
		c0.09-1.61-0.14-2.97-0.71-4.09c-0.57-1.12-1.44-1.98-2.63-2.59c-1.19-0.6-2.65-0.91-4.37-0.91c-0.65,0-1.35,0.05-2.12,0.14
		c-0.77,0.09-1.62,0.26-2.58,0.51l-10.55,24.85c0.83,0.19,1.6,0.34,2.31,0.45c0.71,0.11,1.38,0.17,2,0.17
		c1.65,0.01,3.31-0.28,4.99-0.87c1.68-0.6,3.27-1.46,4.8-2.59c1.52-1.13,2.92-2.5,4.21-4.13
		C419.99,128.4,421.07,126.56,421.93,124.52z"/>
</g>
<g>
	<path class="st1" d="M240.96,156.4c-0.48,1.12-1.1,2.17-1.86,3.16c-0.76,0.99-1.7,1.84-2.81,2.58c-1.11,0.73-2.41,1.31-3.9,1.74
		c-1.49,0.42-3.19,0.63-5.11,0.61h-0.73c-0.22,0-0.45,0-0.71-0.01s-0.55-0.03-0.89-0.06c-0.34-0.04-0.77-0.08-1.31-0.14l-3.44,8.11
		c-0.39,0.92-0.67,1.67-0.82,2.24c-0.16,0.58-0.16,0.96,0,1.16c0.27,0.65,0.96,0.97,2.07,0.97h1.1l-0.35,0.82h-12.49l0.35-0.82h1.06
		c0.6,0,1.17-0.09,1.69-0.28c0.52-0.19,1-0.48,1.43-0.88c0.21-0.23,0.47-0.61,0.78-1.13c0.31-0.52,0.65-1.22,1.01-2.08l8.02-18.89
		c0.76-1.8,1.06-2.95,0.9-3.45c-0.16-0.3-0.41-0.53-0.74-0.69c-0.34-0.16-0.79-0.24-1.37-0.24h-1.06l0.33-0.78h10.65
		c0.75,0,1.49,0.02,2.24,0.06c0.74,0.04,1.44,0.13,2.1,0.27c0.65,0.14,1.25,0.32,1.8,0.56c0.55,0.24,0.99,0.55,1.33,0.94
		c0.33,0.35,0.61,0.72,0.85,1.13s0.4,0.87,0.49,1.37c0.09,0.5,0.09,1.06,0,1.67C241.49,154.95,241.28,155.64,240.96,156.4z
		 M235.85,156.85c0.39-0.89,0.63-1.75,0.73-2.58c0.09-0.83,0.01-1.55-0.24-2.18c-0.25-0.63-0.69-1.13-1.32-1.5
		c-0.63-0.37-1.46-0.56-2.5-0.56c-0.35,0-0.77,0.04-1.28,0.12c-0.51,0.08-1.08,0.18-1.72,0.29l-5.26,12.38
		c0.7,0.11,1.34,0.19,1.92,0.22c0.58,0.03,1.08,0.04,1.49,0.04c0.75,0,1.52-0.15,2.32-0.44c0.79-0.29,1.56-0.72,2.29-1.26
		c0.73-0.55,1.4-1.2,2.02-1.96C234.91,158.66,235.43,157.8,235.85,156.85z"/>
	<path class="st1" d="M272.6,162.78c-0.62,1.47-1.38,2.87-2.29,4.22s-1.9,2.59-3,3.73c-1.1,1.14-2.27,2.18-3.53,3.11
		c-1.26,0.93-2.56,1.72-3.9,2.38c-1.34,0.66-2.71,1.17-4.1,1.52c-1.39,0.35-2.76,0.53-4.13,0.53c-1.98,0-3.69-0.37-5.1-1.11
		c-1.42-0.74-2.49-1.79-3.21-3.14c-0.72-1.35-1.05-2.97-0.99-4.86c0.06-1.89,0.58-3.99,1.56-6.29c0.93-2.19,2.16-4.21,3.7-6.07
		c1.54-1.86,3.25-3.47,5.15-4.83c1.89-1.36,3.89-2.42,6-3.18c2.11-0.76,4.2-1.14,6.29-1.14c1.28,0,2.44,0.17,3.48,0.52
		c1.04,0.34,1.94,0.83,2.71,1.47c0.77,0.63,1.38,1.4,1.85,2.31c0.46,0.91,0.76,1.92,0.9,3.04c0.14,1.12,0.09,2.34-0.12,3.65
		C273.65,159.93,273.23,161.32,272.6,162.78z M267.49,163.34c0.96-2.23,1.62-4.22,1.98-5.97c0.36-1.75,0.39-3.23,0.11-4.44
		c-0.28-1.21-0.89-2.13-1.82-2.77c-0.93-0.64-2.2-0.97-3.82-0.98c-1.47,0-2.9,0.31-4.31,0.94c-1.41,0.63-2.76,1.53-4.05,2.7
		c-1.29,1.17-2.49,2.59-3.61,4.27c-1.12,1.68-2.13,3.56-3.02,5.66c-0.88,2.07-1.48,3.96-1.8,5.67c-0.32,1.71-0.36,3.18-0.1,4.41
		s0.82,2.19,1.68,2.87c0.87,0.68,2.05,1.03,3.56,1.05c1.39,0,2.79-0.27,4.18-0.8c1.39-0.53,2.74-1.35,4.05-2.45
		c1.31-1.1,2.55-2.49,3.73-4.17C265.41,167.64,266.5,165.65,267.49,163.34z"/>
	<path class="st1" d="M294.27,177.58h-22.73l0.35-0.82c0.63,0,1.23-0.04,1.79-0.11c0.56-0.07,1.08-0.23,1.56-0.48
		c0.48-0.24,0.92-0.61,1.34-1.09c0.41-0.48,0.8-1.14,1.15-1.97l8.62-20.32c0.35-0.83,0.53-1.49,0.53-1.97c0-0.48-0.14-0.85-0.41-1.1
		c-0.27-0.25-0.65-0.41-1.16-0.47c-0.5-0.06-1.07-0.1-1.71-0.1l0.35-0.82h12.7l-0.35,0.82c-0.65,0-1.25,0.03-1.8,0.1
		c-0.55,0.06-1.07,0.22-1.56,0.47c-0.49,0.25-0.94,0.62-1.35,1.1c-0.41,0.48-0.8,1.14-1.15,1.97l-8.18,19.28
		c-0.35,0.84-0.56,1.49-0.62,1.98c-0.06,0.48,0.01,0.85,0.21,1.09s0.51,0.4,0.94,0.47c0.43,0.07,0.97,0.11,1.61,0.11h2.95
		c0.89,0,1.66-0.01,2.32-0.04c0.65-0.03,1.24-0.09,1.75-0.18c0.51-0.09,0.99-0.22,1.42-0.39c0.43-0.17,0.85-0.39,1.27-0.66
		c0.51-0.32,0.97-0.63,1.38-0.94c0.41-0.31,0.82-0.65,1.23-1.02c0.41-0.37,0.83-0.8,1.27-1.27c0.44-0.47,0.93-1.03,1.48-1.68
		l0.71,0.11L294.27,177.58z"/>
	<path class="st1" d="M301.45,177.58l0.35-0.82h1.06c0.6,0,1.15-0.08,1.64-0.25c0.49-0.16,0.95-0.43,1.4-0.81
		c0.52-0.4,1.16-1.51,1.93-3.32l8.02-18.89c0.21-0.5,0.39-0.93,0.53-1.28c0.14-0.35,0.25-0.65,0.33-0.91s0.12-0.46,0.13-0.64
		c0.01-0.17-0.02-0.32-0.08-0.45c-0.13-0.35-0.39-0.61-0.8-0.81c-0.41-0.19-0.86-0.29-1.36-0.29h-1.06l0.33-0.78h12.51l-0.33,0.78
		h-1.06c-1.15,0-2.16,0.35-3.04,1.06c-0.26,0.25-0.56,0.64-0.89,1.19c-0.33,0.55-0.69,1.26-1.06,2.13l-8.02,18.89
		c-0.4,0.95-0.67,1.68-0.8,2.2c-0.13,0.52-0.18,0.91-0.13,1.16c0.02,0.12,0.1,0.23,0.24,0.36c0.14,0.12,0.31,0.23,0.52,0.32
		c0.21,0.09,0.44,0.17,0.69,0.24c0.25,0.06,0.5,0.1,0.76,0.1h1.06l-0.35,0.82H301.45z"/>
	<path class="st1" d="M348.55,170.72c-1.26,1.28-2.51,2.39-3.74,3.33c-1.23,0.94-2.48,1.73-3.74,2.35c-1.26,0.63-2.53,1.09-3.83,1.4
		c-1.3,0.31-2.63,0.46-4.01,0.46c-1.5,0-2.81-0.18-3.93-0.55c-1.12-0.37-2.08-0.88-2.85-1.53c-0.78-0.65-1.38-1.44-1.8-2.36
		c-0.42-0.92-0.68-1.93-0.77-3.03c-0.09-1.1-0.02-2.28,0.23-3.54c0.25-1.26,0.65-2.55,1.21-3.87c0.9-2.13,2.11-4.14,3.64-6.05
		c1.52-1.91,3.24-3.58,5.15-5.02c1.91-1.44,3.97-2.58,6.16-3.42c2.2-0.84,4.42-1.26,6.66-1.26c1.11,0,2.04,0.11,2.79,0.32
		s1.38,0.45,1.88,0.7c0.5,0.25,0.91,0.49,1.22,0.7c0.31,0.22,0.57,0.32,0.79,0.32c0.39,0,0.82-0.17,1.28-0.51
		c0.47-0.34,0.93-0.85,1.38-1.54h0.78l-3.53,9.94h-0.69c0.19-1.5,0.19-2.77-0.01-3.84c-0.2-1.06-0.56-1.93-1.1-2.61
		c-0.54-0.68-1.24-1.17-2.1-1.49c-0.86-0.32-1.85-0.48-2.99-0.48c-1.51,0-3.02,0.28-4.52,0.85c-1.51,0.57-2.97,1.44-4.38,2.62
		c-1.41,1.18-2.76,2.66-4.03,4.44c-1.27,1.78-2.43,3.9-3.47,6.34c-0.89,2.08-1.41,3.93-1.57,5.54c-0.16,1.61,0.01,2.96,0.51,4.05
		c0.5,1.09,1.3,1.92,2.41,2.48c1.11,0.56,2.49,0.84,4.14,0.84c0.96,0,1.89-0.09,2.79-0.27c0.9-0.18,1.83-0.5,2.8-0.95
		c0.97-0.45,2-1.07,3.11-1.85c1.1-0.78,2.34-1.79,3.73-3.01L348.55,170.72z"/>
	<path class="st1" d="M373.33,177.58h-22.54l0.35-0.82h1.01c0.13,0,0.3-0.01,0.5-0.03c0.2-0.02,0.43-0.06,0.67-0.11
		c0.24-0.05,0.49-0.12,0.74-0.2s0.48-0.19,0.68-0.32s0.39-0.27,0.56-0.43c0.18-0.16,0.36-0.37,0.54-0.65
		c0.19-0.27,0.39-0.62,0.6-1.03c0.21-0.42,0.46-0.95,0.73-1.6l8.06-18.98c0.4-0.95,0.67-1.71,0.82-2.28
		c0.14-0.57,0.16-0.95,0.07-1.13c-0.27-0.59-1.01-0.89-2.23-0.89h-1.01l0.33-0.78h22.54l-2.36,6.36h-0.86
		c0.08-0.42,0.16-0.82,0.25-1.22c0.09-0.4,0.14-0.77,0.16-1.13c0.02-0.36-0.02-0.69-0.11-0.98c-0.09-0.29-0.28-0.55-0.57-0.77
		c-0.29-0.22-0.7-0.39-1.23-0.51c-0.53-0.12-1.23-0.18-2.09-0.18h-8.11l-4.9,11.54h6.45c0.99,0,1.81-0.08,2.44-0.24
		c0.63-0.16,1.18-0.41,1.62-0.75c0.45-0.34,0.84-0.78,1.19-1.31c0.35-0.53,0.73-1.16,1.14-1.89h0.82l-4.31,10.16h-0.82
		c0.22-0.76,0.39-1.42,0.49-1.96c0.1-0.55,0.08-1-0.07-1.35c-0.15-0.35-0.47-0.61-0.96-0.78c-0.49-0.16-1.23-0.25-2.22-0.25h-6.45
		l-4.65,10.96c-0.16,0.39-0.24,0.73-0.23,1.02c0.01,0.3,0.15,0.52,0.43,0.69c0.27,0.17,0.76,0.25,1.45,0.25h4.94
		c0.79,0,1.5-0.03,2.13-0.1c0.63-0.06,1.22-0.18,1.77-0.33c0.55-0.16,1.07-0.38,1.57-0.66c0.5-0.28,1.02-0.63,1.57-1.06
		c0.55-0.42,1.13-0.93,1.76-1.53c0.63-0.6,1.34-1.3,2.14-2.1H379L373.33,177.58z"/>
</g>
<g>
	<path class="st1" d="M161.22,218.37l0.35-0.82c1.03-0.01,1.82-0.16,2.37-0.44c0.55-0.28,0.96-0.64,1.22-1.09
		c0.26-0.45,0.42-0.95,0.46-1.52c0.05-0.57,0.07-1.15,0.08-1.74l0.04-4.21h-11.34l-3.96,4.66c-0.55,0.66-1.01,1.24-1.37,1.75
		c-0.36,0.5-0.54,0.93-0.54,1.29c0,0.36,0.21,0.64,0.63,0.85c0.42,0.21,1.12,0.36,2.11,0.44l-0.35,0.82h-9.25l0.35-0.82
		c0.64-0.04,1.23-0.18,1.79-0.4c0.55-0.22,1.1-0.54,1.65-0.96c0.54-0.42,1.1-0.93,1.68-1.54c0.58-0.61,1.2-1.31,1.88-2.1l20.5-24.11
		h0.78l-0.17,24.33c0,1.02,0.04,1.84,0.13,2.45c0.09,0.61,0.24,1.08,0.47,1.41c0.23,0.33,0.53,0.56,0.92,0.68
		c0.39,0.12,0.87,0.21,1.46,0.25l-0.35,0.82H161.22z M165.87,195.12l-10.13,11.86h10.05L165.87,195.12z"/>
	<path class="st1" d="M198.93,210.9c-0.47,1.11-1.14,2.16-2.02,3.15c-0.87,0.99-1.88,1.86-3.01,2.6c-1.13,0.74-2.36,1.33-3.67,1.76
		c-1.31,0.43-2.64,0.65-4,0.65c-0.99,0-1.86-0.09-2.61-0.26c-0.75-0.17-1.4-0.37-1.95-0.58c-0.56-0.22-1.04-0.41-1.46-0.58
		c-0.42-0.17-0.8-0.26-1.14-0.26c-0.34,0-0.68,0.12-1,0.37c-0.32,0.24-0.66,0.68-1.03,1.32h-0.78l4.27-10.05h0.78
		c-0.45,1.51-0.64,2.79-0.54,3.85c0.09,1.06,0.38,1.92,0.89,2.59c0.5,0.67,1.17,1.15,2.01,1.46c0.84,0.3,1.78,0.45,2.82,0.45
		c0.89,0,1.75-0.13,2.59-0.39c0.84-0.26,1.6-0.61,2.29-1.05c0.69-0.44,1.29-0.95,1.81-1.52c0.52-0.57,0.91-1.19,1.19-1.83
		c0.31-0.72,0.45-1.35,0.43-1.9c-0.02-0.55-0.2-1.07-0.55-1.58c-0.34-0.51-0.85-1.04-1.51-1.6c-0.66-0.55-1.48-1.19-2.46-1.91
		c-1.33-0.98-2.38-1.85-3.16-2.62c-0.78-0.77-1.34-1.51-1.67-2.22c-0.33-0.71-0.46-1.43-0.38-2.16c0.08-0.73,0.31-1.54,0.69-2.45
		c0.44-1.03,1.05-2.02,1.84-2.94c0.79-0.93,1.7-1.74,2.74-2.45c1.04-0.7,2.17-1.26,3.4-1.68c1.23-0.42,2.49-0.63,3.8-0.63
		c0.85,0,1.58,0.09,2.21,0.26c0.62,0.17,1.16,0.36,1.62,0.57c0.46,0.21,0.86,0.4,1.22,0.56c0.35,0.17,0.69,0.25,1.01,0.25
		c0.33,0,0.66-0.12,0.98-0.36c0.32-0.24,0.7-0.66,1.12-1.28h0.8l-4.3,10.14h-0.8c0.44-1.38,0.65-2.6,0.62-3.64
		c-0.03-1.05-0.26-1.93-0.68-2.64c-0.42-0.71-1.02-1.25-1.79-1.61c-0.77-0.36-1.67-0.54-2.7-0.54c-0.7,0-1.42,0.12-2.15,0.37
		c-0.73,0.24-1.41,0.57-2.04,0.98c-0.63,0.41-1.2,0.89-1.71,1.43c-0.51,0.55-0.89,1.12-1.14,1.73c-0.24,0.57-0.36,1.1-0.35,1.58
		c0.01,0.48,0.18,0.98,0.51,1.49c0.33,0.51,0.84,1.06,1.53,1.65c0.69,0.59,1.59,1.27,2.7,2.05c1.08,0.75,1.95,1.41,2.62,1.97
		c0.67,0.57,1.18,1.05,1.54,1.43c0.68,0.73,1.07,1.63,1.18,2.68C199.64,208.56,199.44,209.7,198.93,210.9z"/>
	<path class="st1" d="M223.93,210.9c-0.47,1.11-1.14,2.16-2.02,3.15c-0.87,0.99-1.88,1.86-3.01,2.6c-1.13,0.74-2.36,1.33-3.67,1.76
		c-1.31,0.43-2.64,0.65-3.99,0.65c-0.99,0-1.86-0.09-2.61-0.26c-0.75-0.17-1.4-0.37-1.95-0.58c-0.56-0.22-1.04-0.41-1.46-0.58
		c-0.42-0.17-0.8-0.26-1.14-0.26s-0.68,0.12-1,0.37c-0.32,0.24-0.66,0.68-1.03,1.32h-0.78l4.27-10.05h0.78
		c-0.45,1.51-0.64,2.79-0.55,3.85c0.09,1.06,0.39,1.92,0.89,2.59c0.5,0.67,1.17,1.15,2.01,1.46c0.84,0.3,1.78,0.45,2.82,0.45
		c0.89,0,1.76-0.13,2.59-0.39c0.84-0.26,1.6-0.61,2.29-1.05c0.69-0.44,1.29-0.95,1.81-1.52s0.91-1.19,1.19-1.83
		c0.31-0.72,0.45-1.35,0.43-1.9c-0.02-0.55-0.2-1.07-0.54-1.58c-0.34-0.51-0.85-1.04-1.51-1.6c-0.66-0.55-1.48-1.19-2.46-1.91
		c-1.32-0.98-2.38-1.85-3.16-2.62c-0.78-0.77-1.34-1.51-1.67-2.22c-0.33-0.71-0.46-1.43-0.38-2.16c0.08-0.73,0.31-1.54,0.69-2.45
		c0.44-1.03,1.05-2.02,1.84-2.94c0.79-0.93,1.7-1.74,2.74-2.45c1.04-0.7,2.17-1.26,3.4-1.68c1.23-0.42,2.49-0.63,3.8-0.63
		c0.85,0,1.58,0.09,2.21,0.26c0.62,0.17,1.17,0.36,1.62,0.57c0.46,0.21,0.86,0.4,1.22,0.56s0.69,0.25,1.01,0.25
		c0.33,0,0.66-0.12,0.98-0.36c0.32-0.24,0.7-0.66,1.12-1.28h0.8l-4.3,10.14h-0.8c0.44-1.38,0.65-2.6,0.62-3.64
		c-0.03-1.05-0.26-1.93-0.68-2.64c-0.42-0.71-1.02-1.25-1.79-1.61c-0.77-0.36-1.67-0.54-2.7-0.54c-0.7,0-1.42,0.12-2.15,0.37
		c-0.73,0.24-1.41,0.57-2.05,0.98c-0.63,0.41-1.2,0.89-1.71,1.43c-0.51,0.55-0.89,1.12-1.14,1.73c-0.24,0.57-0.36,1.1-0.35,1.58
		c0.01,0.48,0.18,0.98,0.51,1.49c0.33,0.51,0.84,1.06,1.53,1.65c0.69,0.59,1.59,1.27,2.7,2.05c1.08,0.75,1.95,1.41,2.62,1.97
		c0.67,0.57,1.18,1.05,1.54,1.43c0.68,0.73,1.07,1.63,1.18,2.68C224.65,208.56,224.45,209.7,223.93,210.9z"/>
	<path class="st1" d="M259.99,203.57c-0.62,1.47-1.38,2.87-2.29,4.22c-0.9,1.34-1.9,2.59-3,3.73c-1.1,1.14-2.27,2.18-3.53,3.11
		c-1.26,0.93-2.56,1.72-3.9,2.38c-1.35,0.66-2.71,1.17-4.1,1.52c-1.39,0.35-2.76,0.53-4.13,0.53c-1.99,0-3.69-0.37-5.1-1.11
		c-1.42-0.74-2.49-1.79-3.21-3.14c-0.72-1.35-1.05-2.97-0.99-4.86c0.06-1.89,0.58-3.99,1.56-6.29c0.93-2.19,2.16-4.21,3.7-6.07
		c1.54-1.86,3.25-3.47,5.15-4.83c1.89-1.36,3.89-2.42,6-3.18c2.11-0.76,4.2-1.14,6.29-1.14c1.28,0,2.44,0.17,3.48,0.52
		c1.04,0.34,1.94,0.83,2.71,1.47c0.77,0.63,1.38,1.4,1.85,2.31c0.46,0.91,0.76,1.92,0.9,3.04c0.13,1.12,0.09,2.34-0.12,3.65
		C261.03,200.72,260.61,202.1,259.99,203.57z M254.88,204.13c0.96-2.23,1.62-4.22,1.98-5.97c0.36-1.75,0.39-3.23,0.11-4.44
		c-0.28-1.21-0.89-2.13-1.82-2.77c-0.93-0.64-2.2-0.97-3.82-0.98c-1.47,0-2.9,0.31-4.31,0.94c-1.41,0.63-2.76,1.53-4.05,2.7
		c-1.29,1.17-2.49,2.59-3.61,4.27c-1.12,1.68-2.13,3.56-3.02,5.66c-0.88,2.07-1.48,3.96-1.8,5.67c-0.32,1.71-0.36,3.18-0.1,4.41
		c0.25,1.23,0.82,2.19,1.68,2.87c0.87,0.68,2.05,1.03,3.56,1.05c1.4,0,2.79-0.27,4.18-0.8c1.39-0.53,2.74-1.35,4.05-2.45
		c1.31-1.1,2.55-2.49,3.73-4.17C252.8,208.42,253.89,206.43,254.88,204.13z"/>
	<path class="st1" d="M286.74,211.51c-1.26,1.28-2.51,2.39-3.74,3.33c-1.23,0.94-2.48,1.73-3.74,2.35c-1.26,0.63-2.53,1.09-3.83,1.4
		c-1.3,0.31-2.63,0.46-4.01,0.46c-1.5,0-2.81-0.18-3.93-0.55c-1.13-0.37-2.08-0.88-2.86-1.53c-0.78-0.65-1.38-1.44-1.8-2.36
		c-0.42-0.92-0.68-1.93-0.77-3.03c-0.09-1.1-0.02-2.28,0.23-3.54c0.25-1.26,0.65-2.55,1.21-3.87c0.9-2.13,2.11-4.14,3.64-6.05
		c1.52-1.91,3.24-3.58,5.15-5.02c1.91-1.44,3.97-2.58,6.16-3.42c2.2-0.84,4.42-1.26,6.66-1.26c1.11,0,2.04,0.11,2.79,0.32
		s1.38,0.45,1.88,0.7c0.5,0.25,0.91,0.49,1.22,0.7c0.31,0.22,0.58,0.32,0.79,0.32c0.39,0,0.82-0.17,1.28-0.51
		c0.47-0.34,0.93-0.85,1.38-1.54h0.78l-3.53,9.94H291c0.19-1.5,0.19-2.77-0.01-3.84s-0.56-1.93-1.1-2.61
		c-0.54-0.68-1.24-1.17-2.1-1.49c-0.86-0.32-1.85-0.48-2.99-0.48c-1.51,0-3.02,0.28-4.52,0.85c-1.51,0.57-2.97,1.44-4.38,2.62
		c-1.41,1.18-2.76,2.66-4.03,4.44c-1.28,1.78-2.43,3.9-3.47,6.34c-0.89,2.08-1.41,3.93-1.57,5.54c-0.16,1.61,0.01,2.96,0.51,4.05
		c0.5,1.09,1.3,1.92,2.41,2.48c1.11,0.56,2.49,0.84,4.14,0.84c0.96,0,1.89-0.09,2.79-0.27c0.9-0.18,1.83-0.5,2.8-0.95
		c0.97-0.45,2-1.07,3.11-1.85c1.1-0.78,2.34-1.79,3.73-3.01L286.74,211.51z"/>
	<path class="st1" d="M286.95,218.37l0.35-0.82h1.06c0.6,0,1.15-0.08,1.64-0.25c0.49-0.16,0.95-0.43,1.4-0.81
		c0.52-0.4,1.16-1.51,1.93-3.32l8.02-18.89c0.21-0.5,0.39-0.93,0.53-1.28c0.14-0.35,0.25-0.65,0.33-0.91s0.12-0.46,0.13-0.64
		c0.01-0.17-0.02-0.32-0.08-0.45c-0.13-0.35-0.39-0.61-0.8-0.81c-0.41-0.19-0.86-0.29-1.36-0.29h-1.06l0.33-0.78h12.51l-0.33,0.78
		h-1.06c-1.15,0-2.16,0.35-3.04,1.06c-0.26,0.25-0.56,0.64-0.89,1.19c-0.33,0.55-0.68,1.26-1.06,2.13l-8.02,18.89
		c-0.4,0.95-0.67,1.68-0.8,2.2c-0.13,0.52-0.18,0.91-0.13,1.16c0.02,0.12,0.1,0.23,0.24,0.36c0.13,0.12,0.31,0.23,0.52,0.32
		c0.21,0.09,0.44,0.17,0.69,0.24c0.25,0.06,0.5,0.1,0.76,0.1h1.06l-0.35,0.82H286.95z"/>
	<path class="st1" d="M320.88,218.37l0.35-0.82c1.03-0.01,1.82-0.16,2.37-0.44c0.55-0.28,0.96-0.64,1.22-1.09
		c0.26-0.45,0.42-0.95,0.46-1.52c0.05-0.57,0.07-1.15,0.08-1.74l0.04-4.21h-11.34l-3.96,4.66c-0.55,0.66-1.01,1.24-1.37,1.75
		c-0.36,0.5-0.54,0.93-0.54,1.29c0,0.36,0.21,0.64,0.63,0.85c0.42,0.21,1.12,0.36,2.11,0.44l-0.35,0.82h-9.25l0.35-0.82
		c0.64-0.04,1.23-0.18,1.79-0.4c0.55-0.22,1.1-0.54,1.65-0.96c0.54-0.42,1.1-0.93,1.68-1.54c0.58-0.61,1.2-1.31,1.88-2.1l20.5-24.11
		h0.78l-0.17,24.33c0,1.02,0.04,1.84,0.13,2.45c0.09,0.61,0.24,1.08,0.47,1.41c0.23,0.33,0.53,0.56,0.92,0.68
		c0.39,0.12,0.87,0.21,1.46,0.25l-0.35,0.82H320.88z M325.53,195.12l-10.13,11.86h10.05L325.53,195.12z"/>
	<path class="st1" d="M367.67,195.98c0.17-0.53,0.29-0.99,0.37-1.37c0.07-0.38,0.11-0.71,0.12-0.99s-0.02-0.52-0.08-0.71
		c-0.05-0.19-0.13-0.38-0.23-0.55c-0.25-0.49-0.63-0.85-1.14-1.09c-0.51-0.24-1.25-0.36-2.23-0.36h-4.14l-9.48,22.34
		c-0.39,0.92-0.65,1.66-0.78,2.22c-0.13,0.56-0.15,0.96-0.06,1.19c0.25,0.59,0.96,0.88,2.13,0.88h1.04l-0.35,0.82h-12.45l0.35-0.82
		h1.06c0.63,0,1.19-0.09,1.69-0.26c0.49-0.17,0.96-0.46,1.42-0.86c0.24-0.23,0.51-0.6,0.81-1.11c0.3-0.51,0.63-1.2,0.99-2.06
		l9.48-22.34h-3.49c-0.59,0-1.1,0.01-1.52,0.04c-0.42,0.03-0.8,0.08-1.12,0.15c-0.33,0.07-0.62,0.16-0.9,0.28
		c-0.27,0.11-0.55,0.27-0.83,0.45c-1.38,0.78-2.58,2.16-3.59,4.14h-0.97l3.23-6.86h24.29l-2.67,6.86H367.67z"/>
	<path class="st1" d="M361.63,218.37l0.35-0.82h1.06c0.6,0,1.15-0.08,1.64-0.25c0.49-0.16,0.95-0.43,1.4-0.81
		c0.52-0.4,1.16-1.51,1.93-3.32l8.02-18.89c0.21-0.5,0.39-0.93,0.53-1.28c0.14-0.35,0.25-0.65,0.33-0.91s0.12-0.46,0.13-0.64
		c0.01-0.17-0.02-0.32-0.08-0.45c-0.13-0.35-0.39-0.61-0.8-0.81c-0.41-0.19-0.86-0.29-1.36-0.29h-1.06l0.33-0.78h12.51l-0.33,0.78
		h-1.06c-1.15,0-2.16,0.35-3.04,1.06c-0.26,0.25-0.56,0.64-0.89,1.19c-0.33,0.55-0.69,1.26-1.06,2.13l-8.02,18.89
		c-0.4,0.95-0.67,1.68-0.8,2.2c-0.13,0.52-0.18,0.91-0.13,1.16c0.02,0.12,0.1,0.23,0.24,0.36c0.14,0.12,0.31,0.23,0.52,0.32
		c0.21,0.09,0.44,0.17,0.69,0.24c0.25,0.06,0.5,0.1,0.76,0.1h1.06l-0.35,0.82H361.63z"/>
	<path class="st1" d="M412.13,203.57c-0.62,1.47-1.38,2.87-2.28,4.22c-0.9,1.34-1.9,2.59-3,3.73c-1.1,1.14-2.27,2.18-3.53,3.11
		c-1.26,0.93-2.56,1.72-3.9,2.38c-1.34,0.66-2.71,1.17-4.09,1.52c-1.39,0.35-2.76,0.53-4.13,0.53c-1.98,0-3.68-0.37-5.1-1.11
		c-1.42-0.74-2.49-1.79-3.21-3.14c-0.72-1.35-1.05-2.97-0.99-4.86c0.06-1.89,0.58-3.99,1.56-6.29c0.93-2.19,2.16-4.21,3.7-6.07
		c1.54-1.86,3.25-3.47,5.14-4.83c1.89-1.36,3.89-2.42,6-3.18c2.11-0.76,4.2-1.14,6.29-1.14c1.28,0,2.44,0.17,3.48,0.52
		c1.04,0.34,1.94,0.83,2.71,1.47c0.77,0.63,1.38,1.4,1.85,2.31c0.46,0.91,0.76,1.92,0.9,3.04c0.13,1.12,0.09,2.34-0.12,3.65
		C413.17,200.72,412.75,202.1,412.13,203.57z M407.02,204.13c0.96-2.23,1.62-4.22,1.98-5.97c0.36-1.75,0.39-3.23,0.11-4.44
		c-0.29-1.21-0.89-2.13-1.82-2.77c-0.93-0.64-2.2-0.97-3.82-0.98c-1.47,0-2.91,0.31-4.31,0.94c-1.41,0.63-2.76,1.53-4.05,2.7
		c-1.29,1.17-2.49,2.59-3.61,4.27c-1.12,1.68-2.13,3.56-3.02,5.66c-0.88,2.07-1.48,3.96-1.8,5.67c-0.32,1.71-0.36,3.18-0.1,4.41
		s0.81,2.19,1.68,2.87c0.87,0.68,2.05,1.03,3.56,1.05c1.4,0,2.79-0.27,4.18-0.8c1.39-0.53,2.74-1.35,4.05-2.45
		c1.31-1.1,2.55-2.49,3.73-4.17C404.94,208.42,406.03,206.43,407.02,204.13z"/>
	<path class="st1" d="M450.38,189.9c-0.62,0-1.19,0.09-1.71,0.27c-0.52,0.18-0.98,0.46-1.39,0.83c-0.51,0.49-1.11,1.55-1.81,3.19
		l-10.46,24.65h-0.78l-9.35-23.55l-7.63,17.97c-0.76,1.8-1.04,2.93-0.84,3.41c0.28,0.59,1.01,0.88,2.19,0.88h1.01l-0.35,0.82h-10.22
		l0.35-0.82h1.01c0.65,0,1.23-0.09,1.74-0.26c0.51-0.17,0.97-0.46,1.39-0.86c0.27-0.23,0.56-0.6,0.86-1.11c0.3-0.51,0.64-1.2,1-2.06
		l8.62-20.32c-0.08-0.16-0.15-0.41-0.21-0.74c-0.07-0.34-0.21-0.68-0.43-1.01c-0.22-0.34-0.56-0.64-1.02-0.9
		c-0.46-0.26-1.12-0.39-1.98-0.39l0.33-0.78h7.14l8.55,21.93l7.16-16.87c0.79-1.86,1.06-2.98,0.82-3.36
		c-0.27-0.62-0.99-0.93-2.15-0.93h-0.97l0.33-0.78h10.14l-0.33,0.78H450.38z"/>
</g>
<polygon class="st1" points="402.65,148.68 496.07,148.68 484.33,177.51 390.91,177.51 "/>
</svg>
